<?xml version="1.0" encoding="UTF-8"?>
<!DOCTYPE svg PUBLIC "-//W3C//DTD SVG 1.1//EN" "http://www.w3.org/Graphics/SVG/1.1/DTD/svg11.dtd">
<!-- Creator: CorelDRAW -->
<svg xmlns="http://www.w3.org/2000/svg" xml:space="preserve" width="9mm" height="10mm" version="1.1" style="shape-rendering:geometricPrecision; text-rendering:geometricPrecision; image-rendering:optimizeQuality; fill-rule:evenodd; clip-rule:evenodd"
viewBox="0 0 900 1000"
 xmlns:xlink="http://www.w3.org/1999/xlink"
 xmlns:xodm="http://www.corel.com/coreldraw/odm/2003">
 <defs>
  <style type="text/css">
   <![CDATA[
    .fil0 {fill:#FEFEFE}
    .fil1 {fill:black}
   ]]>
  </style>
 </defs>
 <g id="Layer_x0020_1">
  <metadata id="CorelCorpID_0Corel-Layer"/>
  <g id="_1972615800976">
   <path class="fil0" d="M253.54 560.53c36.22,36.74 69.57,70.56 77.29,76.97 10.11,-8.57 71.07,-70.2 96.54,-95.94 5.31,-5.37 9.07,-9.18 10.56,-10.66 91.04,-91.05 182.07,-182.12 273.14,-273.13 2.96,-2.96 5.78,-5.78 9.07,-9.08 12.25,-12.29 20.62,-19.5 29.89,-23.68 9.32,-4.2 19.34,-5.28 34.85,-5.28 13.67,0 28.56,7.92 39.8,19.78 10.68,11.28 18.12,26.17 18.12,41.25 0,33.4 -14.94,47.62 -38.11,69.68 -4.38,4.16 -9.05,8.61 -14.16,13.72 -43.3,43.3 -89.69,89.51 -136.13,135.77 -91.57,91.22 -183.37,182.67 -273.57,273.94 -11.69,11.83 -25.3,19.24 -39.74,21.59 -14.03,2.28 -28.81,-0.23 -43.35,-8.11 -3.82,-2.07 -5.18,-3.38 -6.95,-5.07 -0.97,-0.92 -2.06,-1.96 -3.78,-3.31 -8.97,-7.04 -71.76,-70.38 -100.91,-99.79 -5.82,-5.87 -10.17,-10.26 -13.28,-13.37 -2.13,-2.12 -5.63,-5.56 -10.45,-10.31 -29.3,-28.83 -104.83,-103.13 -111.08,-114.61 -4.11,-7.54 -6.23,-13.17 -7.33,-18.87 -1.09,-5.66 -1.15,-11.32 -1.15,-18.98l-0.01 0 0 -1.48c0,-10.35 4.35,-21.64 11.78,-31.57 5.83,-7.79 13.56,-14.75 22.59,-19.77 9.07,-5.04 19.44,-8.12 30.48,-8.12 12.98,0 26.87,4.25 40.68,14.58 10.74,8.04 60.18,58.19 105.21,103.85z"/>
   <path class="fil1" d="M330.85 639.94c-11.07,-7.42 -163.99,-166.98 -183.69,-181.72 -50.72,-37.97 -102.42,8.48 -102.42,43.33l0 0.75 0 0.73c0.01,15.08 0.24,22.24 8.25,36.92 7.18,13.17 109.79,113.07 121.2,124.48 12.83,12.83 103.24,104.55 114.01,113 4.89,3.83 4.69,5.07 10.46,8.2 28.73,15.58 58.33,9.59 80.78,-13.13 135.03,-136.62 273.65,-273.66 409.72,-409.72 30.71,-30.71 51.7,-43.12 51.7,-82.03 0,-29.86 -30.34,-59.08 -55.98,-59.08 -30.48,0 -39.21,4.14 -63.36,28.38 -5.04,5.05 -8.95,8.95 -14,13.99l-268.22 268.22c-8.58,8.58 -101.63,103.11 -108.45,107.68z"/>
  </g>
 </g>
</svg>
