<?xml version="1.0" encoding="UTF-8"?>
<!DOCTYPE svg PUBLIC "-//W3C//DTD SVG 1.1//EN" "http://www.w3.org/Graphics/SVG/1.1/DTD/svg11.dtd">
<!-- Creator: CorelDRAW -->
<svg xmlns="http://www.w3.org/2000/svg" xml:space="preserve" width="210mm" height="297mm" version="1.1" style="shape-rendering:geometricPrecision; text-rendering:geometricPrecision; image-rendering:optimizeQuality; fill-rule:evenodd; clip-rule:evenodd"
viewBox="0 0 21000 29700"
 xmlns:xlink="http://www.w3.org/1999/xlink"
 xmlns:xodm="http://www.corel.com/coreldraw/odm/2003">
 <defs>
  <style type="text/css">
   <![CDATA[
    .fil0 {fill:#FEFEFE}
    .fil1 {fill:black}
   ]]>
  </style>
 </defs>
 <g id="Layer_x0020_1">
  <metadata id="CorelCorpID_0Corel-Layer"/>
  <path class="fil0" d="M6871.37 12959.2c657.48,666.84 1262.88,1280.86 1403.13,1397.08 183.49,-155.58 1290.07,-1274.19 1752.39,-1741.53 96.27,-97.46 164.57,-166.5 191.56,-193.49 1652.63,-1652.63 3304.89,-3305.8 4958.04,-4957.84 53.81,-53.76 104.92,-104.81 164.73,-164.81 222.3,-223.03 374.2,-353.89 542.48,-429.8 169.17,-76.31 351.02,-95.77 632.62,-95.77 248.18,0 518.46,143.62 722.39,358.89 193.96,204.74 328.98,475.04 328.98,748.93 0,606.11 -271.26,864.33 -691.85,1264.72 -79.38,75.57 -164.28,156.39 -256.96,249.07 -785.9,785.9 -1628.08,1624.85 -2471.06,2464.6 -1662.21,1655.83 -3328.58,3315.8 -4965.87,4972.45 -212.21,214.72 -459.12,349.31 -721.2,391.9 -254.79,41.41 -523.12,-4.07 -787.02,-147.25 -69.24,-37.57 -94.04,-61.28 -126.2,-92.03 -17.48,-16.57 -37.29,-35.53 -68.56,-60.05 -162.8,-127.67 -1302.6,-1277.52 -1831.75,-1811.34 -105.63,-106.56 -184.54,-186.17 -241.07,-242.7 -38.57,-38.57 -102.04,-101 -189.66,-187.21 -531.87,-523.27 -1902.79,-1872 -2016.33,-2080.35 -74.59,-136.83 -113.06,-239.04 -132.97,-342.59 -19.74,-102.72 -20.88,-205.35 -20.94,-344.38l-0.14 0 0 -26.94c0,-187.86 78.92,-392.86 213.81,-573.08 105.78,-141.32 246.24,-267.75 410.15,-358.83 164.59,-91.46 352.76,-147.45 553.22,-147.45 235.53,0 487.78,77.15 738.31,264.67 195.1,146.03 1092.52,1056.23 1909.77,1885.13z"/>
  <path class="fil1" d="M8274.73 14400.76c-200.96,-134.57 -2976.75,-3031.01 -3334.22,-3298.58 -920.71,-689.16 -1859.12,153.96 -1859.12,786.58l0 13.59 0 13.35c0.13,273.64 4.37,403.66 149.64,670.16 130.3,239.08 1992.95,2052.32 2200.06,2259.43 232.88,232.89 1873.95,1897.92 2069.52,2051.28 88.72,69.58 85.18,91.93 189.93,148.77 521.53,282.95 1058.67,174.17 1466.33,-238.31 2451,-2479.98 4967.16,-4967.41 7437.07,-7437.32 557.46,-557.46 938.47,-782.64 938.47,-1488.85 0,-542.09 -550.69,-1072.54 -1016.09,-1072.54 -553.27,0 -711.74,75.24 -1150.16,515.1 -91.4,91.69 -162.46,162.47 -254.01,254.03l-4868.76 4868.75c-155.75,155.75 -1844.75,1871.58 -1968.66,1954.56z"/>
 </g>
</svg>
