<svg width="29.000000" height="28.000000" viewBox="0 0 29 28" fill="none" xmlns="http://www.w3.org/2000/svg" xmlns:xlink="http://www.w3.org/1999/xlink">
	<desc>
			Created with Pixso.
	</desc>
	<defs>
		<clipPath id="clip2_239">
			<rect id="Cart" rx="0.000000" width="25.000000" height="25.000000" transform="translate(0.500000 2.500000)" fill="white" fill-opacity="0"/>
		</clipPath>
	</defs>
	<rect id="Cart" rx="0.000000" width="25.000000" height="25.000000" transform="translate(0.500000 2.500000)" fill="#FFFFFF" fill-opacity="0"/>
	<g clip-path="url(#clip2_239)">
		<path id="Vector" d="M0 4.43C0 4.22 0.08 4.01 0.23 3.86C0.39 3.71 0.59 3.62 0.81 3.62L3.25 3.62C3.43 3.62 3.6 3.68 3.75 3.79C3.89 3.9 3.99 4.06 4.03 4.24L4.69 6.87L23.56 6.87C23.68 6.87 23.8 6.9 23.9 6.95C24.01 7 24.11 7.07 24.19 7.17C24.26 7.26 24.32 7.37 24.35 7.49C24.37 7.6 24.38 7.72 24.35 7.84L22.73 15.97C22.69 16.14 22.6 16.3 22.46 16.42C22.33 16.54 22.15 16.61 21.97 16.62L6.7 17.39L7.17 19.87L21.12 19.87C21.34 19.87 21.54 19.96 21.69 20.11C21.85 20.26 21.93 20.47 21.93 20.68C21.93 20.9 21.85 21.1 21.69 21.26C21.54 21.41 21.34 21.5 21.12 21.5L6.5 21.5C6.31 21.5 6.12 21.43 5.98 21.31C5.83 21.19 5.73 21.02 5.7 20.83L3.26 7.86L2.61 5.25L0.81 5.25C0.59 5.25 0.39 5.16 0.23 5.01C0.08 4.85 0 4.65 0 4.43ZM5.04 8.5L6.4 15.77L21.26 15.03L22.57 8.5L5.04 8.5ZM8.12 21.5C7.26 21.5 6.43 21.84 5.82 22.45C5.21 23.06 4.87 23.88 4.87 24.75C4.87 25.61 5.21 26.43 5.82 27.04C6.43 27.65 7.26 28 8.12 28C8.98 28 9.81 27.65 10.42 27.04C11.03 26.43 11.37 25.61 11.37 24.75C11.37 23.88 11.03 23.06 10.42 22.45C9.81 21.84 8.98 21.5 8.12 21.5ZM19.5 21.5C18.63 21.5 17.81 21.84 17.2 22.45C16.59 23.06 16.25 23.88 16.25 24.75C16.25 25.61 16.59 26.43 17.2 27.04C17.81 27.65 18.63 28 19.5 28C20.36 28 21.18 27.65 21.79 27.04C22.4 26.43 22.75 25.61 22.75 24.75C22.75 23.88 22.4 23.06 21.79 22.45C21.18 21.84 20.36 21.5 19.5 21.5ZM8.12 23.12C7.69 23.12 7.28 23.29 6.97 23.6C6.67 23.9 6.5 24.31 6.5 24.75C6.5 25.18 6.67 25.59 6.97 25.89C7.28 26.2 7.69 26.37 8.12 26.37C8.55 26.37 8.96 26.2 9.27 25.89C9.57 25.59 9.75 25.18 9.75 24.75C9.75 24.31 9.57 23.9 9.27 23.6C8.96 23.29 8.55 23.12 8.12 23.12ZM19.5 23.12C19.06 23.12 18.65 23.29 18.35 23.6C18.04 23.9 17.87 24.31 17.87 24.75C17.87 25.18 18.04 25.59 18.35 25.89C18.65 26.2 19.06 26.37 19.5 26.37C19.93 26.37 20.34 26.2 20.64 25.89C20.95 25.59 21.12 25.18 21.12 24.75C21.12 24.31 20.95 23.9 20.64 23.6C20.34 23.29 19.93 23.12 19.5 23.12Z" fill="#272727" fill-opacity="1.000000" fill-rule="evenodd"/>
	</g>
</svg>
