<svg width="100.000000" height="100.000000" viewBox="0 0 100 100" fill="none" xmlns="http://www.w3.org/2000/svg" xmlns:xlink="http://www.w3.org/1999/xlink">
	<desc>
			Created with Pixso.
	</desc>
	<defs>
		<clipPath id="clip116_579">
			<rect id="CheckCircle" rx="0.000000" width="99.000000" height="99.000000" transform="translate(0.500000 0.500000)" fill="white" fill-opacity="0"/>
		</clipPath>
	</defs>
	<rect id="CheckCircle" rx="0.000000" width="99.000000" height="99.000000" transform="translate(0.500000 0.500000)" fill="#FFFFFF" fill-opacity="0"/>
	<g clip-path="url(#clip116_579)">
		<path id="Vector" d="M50 93.75C61.6 93.75 72.73 89.14 80.93 80.93C89.14 72.73 93.75 61.6 93.75 50C93.75 38.39 89.14 27.26 80.93 19.06C72.73 10.85 61.6 6.25 50 6.25C38.39 6.25 27.26 10.85 19.06 19.06C10.85 27.26 6.25 38.39 6.25 50C6.25 61.6 10.85 72.73 19.06 80.93C27.26 89.14 38.39 93.75 50 93.75ZM50 100C63.26 100 75.97 94.73 85.35 85.35C94.73 75.97 100 63.26 100 50C100 36.73 94.73 24.02 85.35 14.64C75.97 5.26 63.26 0 50 0C36.73 0 24.02 5.26 14.64 14.64C5.26 24.02 0 36.73 0 50C0 63.26 5.26 75.97 14.64 85.35C24.02 94.73 36.73 100 50 100Z" fill="#56B280" fill-opacity="0.600000" fill-rule="evenodd"/>
		<path id="Vector" d="M68.56 31.06C69.43 30.19 70.61 29.7 71.84 29.7C73.08 29.7 74.26 30.18 75.14 31.04C76.02 31.9 76.52 33.08 76.54 34.31C76.57 35.54 76.1 36.73 75.25 37.62L50.3 68.81C49.87 69.27 49.35 69.64 48.78 69.9C48.2 70.15 47.58 70.29 46.95 70.3C46.32 70.32 45.7 70.2 45.11 69.97C44.53 69.73 44 69.38 43.55 68.93L27.02 52.4C26.56 51.97 26.19 51.45 25.93 50.87C25.68 50.3 25.54 49.68 25.53 49.05C25.52 48.42 25.63 47.79 25.87 47.21C26.11 46.63 26.46 46.1 26.9 45.65C27.35 45.21 27.88 44.86 28.46 44.62C29.04 44.38 29.67 44.27 30.3 44.28C30.93 44.29 31.55 44.43 32.12 44.68C32.7 44.94 33.22 45.31 33.64 45.77L46.73 58.85L68.44 31.2C68.48 31.15 68.52 31.1 68.56 31.06L68.56 31.06Z" fill="#56B280" fill-opacity="0.600000" fill-rule="evenodd"/>
	</g>
</svg>
