<svg width="10.000000" height="10.000000" viewBox="0 0 10 10" fill="none" xmlns="http://www.w3.org/2000/svg" xmlns:xlink="http://www.w3.org/1999/xlink">
	<desc>
			Created with Pixso.
	</desc>
	<defs>
		<clipPath id="clip2_249">
			<rect id="ChevronDown" rx="0.000000" width="9.000000" height="9.000000" transform="translate(0.500000 0.500000)" fill="white" fill-opacity="0"/>
		</clipPath>
	</defs>
	<rect id="ChevronDown" rx="0.000000" width="9.000000" height="9.000000" transform="translate(0.500000 0.500000)" fill="#FFFFFF" fill-opacity="0"/>
	<g clip-path="url(#clip2_249)">
		<path id="Vector" d="M1.02 2.9C1.05 2.87 1.09 2.85 1.12 2.83C1.16 2.82 1.2 2.81 1.24 2.81C1.29 2.81 1.33 2.82 1.36 2.83C1.4 2.85 1.44 2.87 1.47 2.9L4.99 6.43L8.52 2.9C8.55 2.87 8.59 2.85 8.62 2.83C8.66 2.82 8.7 2.81 8.74 2.81C8.79 2.81 8.83 2.82 8.86 2.83C8.9 2.85 8.94 2.87 8.97 2.9C9 2.93 9.02 2.96 9.03 3C9.05 3.04 9.06 3.08 9.06 3.12C9.06 3.16 9.05 3.2 9.03 3.24C9.02 3.28 9 3.31 8.97 3.34L5.22 7.09C5.19 7.12 5.15 7.14 5.11 7.16C5.08 7.18 5.04 7.18 4.99 7.18C4.95 7.18 4.91 7.18 4.87 7.16C4.84 7.14 4.8 7.12 4.77 7.09L1.02 3.34C0.99 3.31 0.97 3.28 0.96 3.24C0.94 3.2 0.93 3.16 0.93 3.12C0.93 3.08 0.94 3.04 0.96 3C0.97 2.96 0.99 2.93 1.02 2.9Z" fill="#272727" fill-opacity="1.000000" fill-rule="evenodd"/>
		<path id="Vector" d="M1.13 2.57Q1.08 2.58 1.03 2.6Q0.97 2.62 0.93 2.66Q0.88 2.69 0.85 2.72Q0.81 2.76 0.78 2.81Q0.75 2.85 0.72 2.9Q0.7 2.96 0.69 3.01Q0.68 3.06 0.68 3.12Q0.68 3.18 0.69 3.23Q0.7 3.28 0.72 3.34Q0.75 3.39 0.78 3.44Q0.81 3.48 0.85 3.52L4.6 7.27Q4.64 7.31 4.68 7.34Q4.73 7.37 4.78 7.39Q4.83 7.41 4.88 7.42Q4.94 7.43 4.99 7.43Q5.05 7.43 5.1 7.42Q5.16 7.41 5.21 7.39Q5.26 7.37 5.31 7.34Q5.35 7.31 5.39 7.27L9.14 3.52Q9.18 3.48 9.21 3.43Q9.24 3.39 9.26 3.34Q9.29 3.28 9.3 3.23Q9.31 3.18 9.31 3.12Q9.31 3.06 9.3 3.01Q9.29 2.96 9.26 2.9Q9.24 2.85 9.21 2.81Q9.18 2.76 9.14 2.72Q9.1 2.68 9.06 2.65Q9.01 2.62 8.96 2.6Q8.91 2.58 8.85 2.57Q8.8 2.56 8.74 2.56Q8.69 2.56 8.63 2.57Q8.58 2.58 8.53 2.6Q8.48 2.62 8.43 2.65Q8.39 2.68 8.35 2.72L4.99 6.07L1.64 2.72Q1.6 2.68 1.56 2.65Q1.51 2.62 1.46 2.6Q1.41 2.58 1.35 2.57Q1.3 2.56 1.24 2.56Q1.19 2.56 1.13 2.57ZM5.17 6.25L4.99 6.43L4.82 6.25L1.47 2.9C1.44 2.87 1.4 2.85 1.36 2.83C1.33 2.82 1.29 2.81 1.24 2.81C1.2 2.81 1.16 2.82 1.12 2.83C1.09 2.85 1.05 2.87 1.02 2.9C0.99 2.93 0.97 2.96 0.96 3C0.94 3.04 0.93 3.08 0.93 3.12C0.93 3.16 0.94 3.2 0.96 3.24C0.97 3.28 0.99 3.31 1.02 3.34L4.77 7.09C4.8 7.12 4.84 7.14 4.87 7.16C4.91 7.18 4.95 7.18 4.99 7.18C5.04 7.18 5.08 7.18 5.11 7.16C5.15 7.14 5.19 7.12 5.22 7.09L8.97 3.34C9 3.31 9.02 3.28 9.03 3.24C9.05 3.2 9.06 3.16 9.06 3.12C9.06 3.08 9.05 3.04 9.03 3C9.02 2.96 9 2.93 8.97 2.9C8.94 2.87 8.9 2.85 8.86 2.83C8.83 2.82 8.79 2.81 8.74 2.81C8.7 2.81 8.66 2.82 8.62 2.83C8.59 2.85 8.55 2.87 8.52 2.9L5.17 6.25Z" fill="#272727" fill-opacity="1.000000" fill-rule="evenodd"/>
	</g>
</svg>
