<svg width="364.360840" height="96.456543" viewBox="0 0 364.361 96.4565" fill="none" xmlns="http://www.w3.org/2000/svg" xmlns:xlink="http://www.w3.org/1999/xlink">
	<desc>
			Created with Pixso.
	</desc>
	<defs/>
	<path id="hero-title" d="M39.63 74.64Q37.75 73.69 35.4 73.69Q33.27 73.69 31.49 74.45Q30.1 75.04 29.09 76.03Q28.81 76.3 28.55 76.61L28.55 66.49L23.99 66.49L23.99 96.09L28.55 96.09L28.55 83.77Q28.55 80.84 30.01 79.27Q30.03 79.25 30.05 79.23Q30.43 78.83 30.88 78.53Q32.2 77.65 34.11 77.65Q36.06 77.65 37.38 78.57Q37.8 78.85 38.15 79.23Q38.16 79.24 38.17 79.25Q39.64 80.82 39.64 83.77L39.64 96.09L44.16 96.09L44.16 83.09Q44.16 80.09 43.01 77.98Q42.21 76.47 40.98 75.49Q40.47 75.09 39.89 74.77Q39.76 74.7 39.63 74.64ZM306.33 79.09Q304.96 81.65 304.96 84.97Q304.96 88.18 306.25 90.75Q306.29 90.83 306.33 90.91Q307.29 92.74 308.74 94Q309.37 94.55 310.09 95Q311.03 95.57 312.05 95.92Q313.61 96.45 315.36 96.45Q317.92 96.45 319.89 95.42Q321.87 94.37 322.99 92.77L322.99 96.09L327.59 96.09L327.59 66.49L322.99 66.49L322.99 77.13Q321.75 75.57 319.65 74.64Q317.85 73.82 316 73.71Q315.7 73.69 315.4 73.69Q313.42 73.69 311.7 74.34Q310.87 74.65 310.09 75.11Q309.29 75.59 308.61 76.19Q307.25 77.39 306.33 79.09ZM338.15 96.09L338.15 66.49L333.59 66.49L333.59 96.09L338.15 96.09ZM19.39 72.01L19.39 68.29L0 68.29L0 72.01L7.44 72.01L7.44 96.09L12 96.09L12 72.01L19.39 72.01ZM143.43 89.97L143.43 77.77L148.79 77.77L148.79 74.05L143.43 74.05L143.43 68.57L138.83 68.57L138.83 74.05L136.24 74.05L136.24 77.77L138.83 77.77L138.83 89.97Q138.83 93.16 140.42 94.61Q140.45 94.63 140.47 94.65Q142.12 96.09 145.19 96.09L148.79 96.09L148.79 92.29L145.99 92.29Q144.6 92.29 144.01 91.75Q143.43 91.21 143.43 89.97ZM69.99 86.77Q70.16 85.77 70.16 84.53Q70.16 81.42 68.86 79.01Q68.83 78.94 68.79 78.87Q68.08 77.59 67.08 76.61Q66.16 75.71 64.99 75.06Q64.75 74.92 64.51 74.8Q62.25 73.69 59.43 73.69Q56.35 73.69 53.93 74.96Q53.81 75.03 53.69 75.09Q52.6 75.7 51.73 76.53Q50.59 77.61 49.81 79.07Q48.44 81.65 48.44 85.06Q48.44 88.45 49.85 91.03Q50.67 92.51 51.83 93.61Q52.7 94.43 53.77 95.04Q54.12 95.24 54.49 95.41Q56.72 96.45 59.43 96.45Q62.99 96.45 65.48 94.83Q65.71 94.68 65.93 94.52Q67.38 93.45 68.33 92.04Q69.1 90.89 69.55 89.53L64.63 89.53Q63.96 90.88 62.88 91.64Q61.5 92.61 59.43 92.61Q57.81 92.61 56.51 91.97Q55.75 91.6 55.11 91.01Q54.56 90.52 54.17 89.92Q53.29 88.59 53.15 86.77L69.99 86.77ZM100.62 74.67Q98.63 73.69 96.15 73.69Q94.78 73.69 93.52 74.06Q92.98 74.22 92.45 74.45Q90.99 75.09 89.97 76.15Q89.77 76.35 89.59 76.57L89.59 74.05L85.03 74.05L85.03 96.09L89.59 96.09L89.59 83.77Q89.59 80.84 91.05 79.27Q91.07 79.25 91.09 79.23Q91.47 78.83 91.92 78.53Q93.24 77.65 95.15 77.65Q97.1 77.65 98.42 78.57Q98.84 78.85 99.19 79.23Q99.2 79.24 99.21 79.25Q100.68 80.82 100.68 83.77L100.68 96.09L105.2 96.09L105.2 83.09Q105.2 80.09 104.04 77.98Q103.31 76.64 102.23 75.72Q101.58 75.17 100.81 74.77Q100.72 74.72 100.62 74.67ZM110.85 79.09Q109.48 81.65 109.48 84.97Q109.48 88.18 110.77 90.75Q110.81 90.83 110.85 90.91Q111.85 92.8 113.35 94.09Q113.93 94.59 114.59 95Q115.62 95.63 116.72 95.98Q118.18 96.45 119.79 96.45Q122.35 96.45 124.35 95.42Q126.35 94.37 127.51 92.81L127.51 96.09L132.11 96.09L132.11 74.05L127.51 74.05L127.51 77.25Q126.35 75.73 124.41 74.71Q122.48 73.69 119.88 73.69Q118.07 73.69 116.45 74.25Q115.5 74.58 114.61 75.11Q113.81 75.59 113.13 76.19Q111.77 77.39 110.85 79.09ZM184.96 75.5Q184.12 76.24 183.51 77.25L183.51 74.05L178.95 74.05L178.95 96.09L183.51 96.09L183.51 84.49Q183.51 81.13 184.89 79.77Q184.91 79.75 184.93 79.73Q186.32 78.41 188.95 78.41L190.11 78.41L190.11 73.69Q187.84 73.69 186.18 74.64Q185.52 75.01 184.96 75.5ZM214.35 86.77Q214.52 85.77 214.52 84.53Q214.52 81.42 213.22 79.01Q213.19 78.94 213.15 78.87Q212.44 77.59 211.44 76.61Q210.52 75.71 209.35 75.06Q209.11 74.92 208.87 74.8Q206.61 73.69 203.79 73.69Q200.71 73.69 198.29 74.96Q198.17 75.03 198.05 75.09Q196.96 75.7 196.09 76.53Q194.95 77.61 194.17 79.07Q192.8 81.65 192.8 85.06Q192.8 88.45 194.21 91.03Q195.03 92.51 196.2 93.61Q197.06 94.43 198.13 95.04Q198.48 95.24 198.85 95.41Q201.08 96.45 203.79 96.45Q207.35 96.45 209.84 94.83Q210.07 94.68 210.29 94.52Q211.74 93.45 212.69 92.04Q213.46 90.89 213.91 89.53L208.99 89.53Q208.32 90.88 207.24 91.64Q205.86 92.61 203.79 92.61Q202.17 92.61 200.87 91.97Q200.11 91.6 199.47 91.01Q198.92 90.52 198.53 89.92Q197.65 88.59 197.51 86.77L214.35 86.77ZM229.25 79.07Q227.88 81.65 227.88 85.06Q227.88 88.45 229.25 91.03Q230.1 92.61 231.34 93.75Q232.12 94.48 233.07 95.04Q233.33 95.18 233.59 95.32Q235.85 96.45 238.67 96.45Q242.22 96.45 244.72 94.83Q244.98 94.66 245.23 94.47Q246.2 93.74 246.94 92.83Q248.23 91.26 248.83 89.13L243.91 89.13Q243.34 90.7 242.22 91.56Q240.85 92.61 238.67 92.61Q237 92.61 235.73 91.9Q234.88 91.42 234.22 90.61Q232.56 88.61 232.56 85.06Q232.56 81.49 234.22 79.51Q234.87 78.73 235.7 78.26Q236.97 77.53 238.67 77.53Q240.67 77.53 241.99 78.45Q242.38 78.72 242.7 79.05Q243.49 79.85 243.91 81.01L248.83 81.01Q248.15 78.37 246.5 76.65Q245.95 76.07 245.29 75.59Q242.67 73.69 238.67 73.69Q235.82 73.69 233.55 74.84Q233.31 74.96 233.07 75.09Q232.16 75.62 231.39 76.31Q230.12 77.46 229.25 79.07ZM253.25 79.09Q251.88 81.65 251.88 84.97Q251.88 88.18 253.17 90.75Q253.21 90.83 253.25 90.91Q254.25 92.8 255.75 94.09Q256.33 94.59 256.99 95Q258.01 95.63 259.12 95.98Q260.58 96.45 262.19 96.45Q264.75 96.45 266.75 95.42Q268.75 94.37 269.91 92.81L269.91 96.09L274.51 96.09L274.51 74.05L269.91 74.05L269.91 77.25Q268.75 75.73 266.81 74.71Q264.88 73.69 262.28 73.69Q260.47 73.69 258.85 74.25Q257.9 74.58 257.01 75.11Q256.21 75.59 255.53 76.19Q254.17 77.39 253.25 79.09ZM296.1 74.67Q294.11 73.69 291.63 73.69Q290.26 73.69 289 74.06Q288.46 74.22 287.93 74.45Q286.47 75.09 285.45 76.15Q285.25 76.35 285.07 76.57L285.07 74.05L280.51 74.05L280.51 96.09L285.07 96.09L285.07 83.77Q285.07 80.84 286.53 79.27Q286.55 79.25 286.57 79.23Q286.95 78.83 287.4 78.53Q288.72 77.65 290.63 77.65Q292.58 77.65 293.9 78.57Q294.32 78.85 294.67 79.23L294.69 79.25Q296.16 80.82 296.16 83.77L296.16 96.09L300.68 96.09L300.68 83.09Q300.68 80.09 299.51 77.98Q298.79 76.64 297.71 75.72Q297.06 75.17 296.29 74.77Q296.2 74.72 296.1 74.67ZM364.19 86.77Q364.36 85.77 364.36 84.53Q364.36 81.42 363.06 79.01Q363.03 78.94 362.99 78.87Q362.28 77.59 361.28 76.61Q360.36 75.71 359.19 75.06Q358.95 74.92 358.71 74.8Q356.45 73.69 353.63 73.69Q350.55 73.69 348.13 74.96Q348.01 75.03 347.89 75.09Q346.8 75.7 345.93 76.53Q344.79 77.61 344.01 79.07Q342.64 81.65 342.64 85.06Q342.64 88.45 344.05 91.03Q344.87 92.51 346.04 93.61Q346.9 94.43 347.97 95.04Q348.32 95.24 348.69 95.41Q350.92 96.45 353.63 96.45Q357.19 96.45 359.68 94.83Q359.91 94.68 360.13 94.52Q361.58 93.45 362.53 92.04Q363.3 90.89 363.75 89.53L358.83 89.53Q358.16 90.88 357.08 91.64Q355.7 92.61 353.63 92.61Q352.01 92.61 350.71 91.97Q349.95 91.6 349.31 91.01Q348.76 90.52 348.37 89.92Q347.49 88.59 347.35 86.77L364.19 86.77ZM172.95 96.09L172.95 74.05L168.39 74.05L168.39 86.33Q168.39 89.23 166.95 90.81Q166.92 90.84 166.89 90.88Q166.52 91.26 166.09 91.55Q164.77 92.45 162.84 92.45Q160.89 92.45 159.57 91.54Q159.15 91.26 158.79 90.88Q157.32 89.29 157.32 86.33L157.32 74.05L152.8 74.05L152.8 87.01Q152.8 90.01 153.97 92.14Q154.71 93.46 155.79 94.38Q156.44 94.93 157.21 95.34Q157.25 95.36 157.29 95.38Q159.32 96.41 161.88 96.41Q163.13 96.41 164.29 96.09Q164.94 95.91 165.57 95.63Q167.19 94.91 168.23 93.69Q168.31 93.59 168.39 93.49L168.39 96.09L172.95 96.09ZM64.68 80.35Q65.37 81.53 65.39 83.09L53.19 83.09Q53.44 81.13 54.48 79.79Q54.8 79.38 55.19 79.03Q55.89 78.4 56.71 78.04Q57.85 77.53 59.23 77.53Q61.13 77.53 62.57 78.33Q63.12 78.63 63.59 79.05Q64.26 79.63 64.68 80.35ZM209.04 80.35Q209.73 81.53 209.75 83.09L197.55 83.09Q197.8 81.13 198.84 79.79Q199.16 79.38 199.56 79.03Q200.25 78.4 201.07 78.04Q202.21 77.53 203.59 77.53Q205.49 77.53 206.93 78.33Q207.48 78.63 207.95 79.05Q208.62 79.63 209.04 80.35ZM358.88 80.35Q359.57 81.53 359.59 83.09L347.39 83.09Q347.64 81.13 348.68 79.79Q349 79.38 349.4 79.03Q350.09 78.4 350.91 78.04Q352.05 77.53 353.43 77.53Q355.33 77.53 356.77 78.33Q357.32 78.63 357.79 79.05Q358.46 79.63 358.88 80.35ZM126.57 81.09Q127.51 82.77 127.51 85.06Q127.51 87.33 126.57 89.03Q125.79 90.44 124.6 91.29Q124.36 91.46 124.11 91.61Q123.37 92.03 122.58 92.25Q121.74 92.49 120.84 92.49Q120.22 92.49 119.62 92.37Q118.56 92.16 117.57 91.59Q117.28 91.42 117.01 91.22Q115.85 90.36 115.09 88.97Q114.16 87.25 114.16 84.97Q114.16 82.69 115.09 81.03Q115.84 79.72 116.95 78.9Q117.24 78.69 117.55 78.51Q118.29 78.1 119.07 77.88Q119.92 77.65 120.84 77.65Q121.74 77.65 122.58 77.89Q123.37 78.11 124.11 78.53Q124.4 78.7 124.67 78.9Q125.81 79.73 126.57 81.09ZM268.97 81.09Q269.91 82.77 269.91 85.06Q269.91 87.33 268.97 89.03Q268.19 90.44 267 91.29Q266.76 91.46 266.51 91.61Q265.77 92.03 264.98 92.25Q264.14 92.49 263.24 92.49Q262.62 92.49 262.02 92.37Q260.96 92.16 259.97 91.59Q259.68 91.42 259.41 91.22Q258.25 90.36 257.49 88.97Q256.56 87.25 256.56 84.97Q256.56 82.69 257.49 81.03Q258.24 79.72 259.35 78.9Q259.64 78.69 259.95 78.51Q260.69 78.1 261.47 77.88Q262.32 77.65 263.24 77.65Q264.14 77.65 264.98 77.89Q265.77 78.11 266.51 78.53Q266.8 78.7 267.07 78.9Q268.21 79.73 268.97 81.09ZM322.05 81.09Q322.99 82.77 322.99 85.06Q322.99 87.33 322.05 89.03Q321.27 90.44 320.08 91.29Q319.84 91.46 319.59 91.61Q318.85 92.03 318.06 92.25Q317.22 92.49 316.31 92.49Q315.7 92.49 315.1 92.37Q314.04 92.16 313.05 91.59Q312.76 91.42 312.49 91.22Q311.33 90.36 310.57 88.97Q309.64 87.25 309.64 84.97Q309.64 82.69 310.57 81.03Q311.32 79.72 312.43 78.9Q312.72 78.69 313.03 78.51Q313.77 78.1 314.55 77.88Q315.4 77.65 316.31 77.65Q317.22 77.65 318.06 77.89Q318.85 78.11 319.59 78.53Q319.88 78.7 320.15 78.9Q321.29 79.73 322.05 81.09Z" fill="#1D252C" fill-opacity="1.000000" fill-rule="evenodd"/>
</svg>
