<svg width="33.613281" height="33.613281" viewBox="0 0 33.6133 33.6133" fill="none" xmlns="http://www.w3.org/2000/svg" xmlns:xlink="http://www.w3.org/1999/xlink">
	<desc>
			Created with Pixso.
	</desc>
	<defs>
		<clipPath id="clip2_258">
			<rect rx="0.000000" width="19.604763" height="19.604763" transform="translate(2.492785 16.977648) rotate(-48.000000)" fill="white" fill-opacity="0"/>
		</clipPath>
		<clipPath id="clip2_260">
			<rect rx="0.000000" width="33.478977" height="33.478977" transform="translate(0.067227 0.067227)" fill="white" fill-opacity="0"/>
		</clipPath>
	</defs>
	<g clip-path="url(#clip2_260)">
		<mask id="mask2_253" mask-type="alpha" maskUnits="userSpaceOnUse" x="0.000000" y="0.000000" width="33.613430" height="33.613430">
			<circle cx="16.806641" cy="16.806641" r="16.806715" fill="#F578A5" fill-opacity="1.000000"/>
		</mask>
		<g mask="url(#mask2_253)">
			<circle cx="16.806641" cy="16.806641" r="16.806715" fill="#56B280" fill-opacity="1.000000"/>
		</g>
		<g mask="url(#mask2_253)">
			<path d="M24.31 26.08L10.21 25.6C9.79 25.58 9.44 25.92 9.44 26.34L9.44 33.37L25.03 33.37L25.03 26.82C25.03 26.42 24.71 26.09 24.31 26.08Z" fill="#FFFFFF" fill-opacity="1.000000" fill-rule="nonzero"/>
			<path d="M24.33 25.34L10.24 24.86Q10.07 24.86 9.92 24.89Q9.78 24.91 9.64 24.96Q9.51 25.02 9.39 25.09Q9.27 25.17 9.16 25.28Q9.05 25.38 8.96 25.51Q8.88 25.62 8.83 25.75Q8.77 25.89 8.74 26.03Q8.7 26.18 8.7 26.34L8.7 34.1L25.76 34.1L25.76 26.82Q25.76 26.67 25.73 26.52Q25.7 26.39 25.65 26.26Q25.6 26.13 25.53 26.02Q25.45 25.9 25.35 25.79Q25.24 25.69 25.13 25.61Q25.02 25.53 24.89 25.47Q24.77 25.42 24.63 25.38Q24.49 25.35 24.33 25.34ZM10.21 25.6L24.31 26.08C24.71 26.09 25.03 26.42 25.03 26.82L25.03 33.37L9.44 33.37L9.44 26.34C9.44 25.92 9.79 25.58 10.21 25.6Z" fill="#FFFFFF" fill-opacity="1.000000" fill-rule="evenodd"/>
			<rect rx="0.000000" width="19.604763" height="19.604763" transform="translate(2.492785 16.977648) rotate(-48.000000)" fill="#FFFFFF" fill-opacity="0"/>
			<g clip-path="url(#clip2_258)">
				<path d="M12.31 11.8C15.73 7.03 14.26 3.16 14.27 3.15C14.19 2.96 14.29 2.74 14.49 2.67C14.58 2.63 14.69 2.64 14.79 2.69C20.97 5.64 23.63 9.46 24.14 12.92C24.34 14.26 24.21 15.63 23.77 16.91C23.36 18.09 22.68 19.16 21.79 20.04C20.06 21.7 17.65 22.47 15.28 21.69C14.67 21.49 14.1 21.2 13.58 20.83C12.54 20.08 11.75 19.03 11.31 17.83C10.85 16.54 10.84 15.13 11.27 13.83C11.51 13.1 11.86 12.42 12.31 11.8Z" fill="#FFFFFF" fill-opacity="1.000000" fill-rule="nonzero"/>
				<path d="M14.34 3.28C14.19 3.13 14.18 2.9 14.33 2.75C14.47 2.6 14.71 2.59 14.86 2.73C14.87 2.74 14.88 2.75 14.89 2.76C14.9 2.78 17.89 5.91 18.31 11.95L18.32 12.01C18.41 13.42 18.36 14.84 18.18 16.25L20.22 14.68C20.39 14.56 20.63 14.61 20.74 14.78C20.85 14.93 20.83 15.14 20.69 15.27L18.02 17.31C17.42 20.82 15.32 25.78 18.1 28.89C18.24 29.05 18.22 29.29 18.06 29.42C17.91 29.55 17.69 29.54 17.55 29.4C14.21 25.67 16.64 21.06 17.3 17.07L17.31 17.01C17.58 15.42 17.68 13.81 17.59 12.2L15.19 10.45C15.02 10.33 14.98 10.1 15.09 9.92C15.21 9.75 15.44 9.71 15.61 9.83C15.62 9.83 15.63 9.84 15.63 9.84L17.49 11.21C16.91 5.97 14.35 3.29 14.34 3.28Z" fill="#56B280" fill-opacity="1.000000" fill-rule="nonzero"/>
			</g>
		</g>
	</g>
</svg>
