<svg width="18.000000" height="18.000000" viewBox="0 0 18 18" fill="none" xmlns="http://www.w3.org/2000/svg" xmlns:xlink="http://www.w3.org/1999/xlink">
	<desc>
			Created with Pixso.
	</desc>
	<defs>
		<clipPath id="clip116_487">
			<rect id="InfoSquareFill" rx="0.000000" width="17.000000" height="17.000000" transform="translate(0.500000 0.500000)" fill="white" fill-opacity="0"/>
		</clipPath>
	</defs>
	<rect id="InfoSquareFill" rx="0.000000" width="17.000000" height="17.000000" transform="translate(0.500000 0.500000)" fill="#FFFFFF" fill-opacity="0"/>
	<g clip-path="url(#clip116_487)">
		<path id="Vector" d="M0 2.25C0 1.65 0.23 1.08 0.65 0.65C1.08 0.23 1.65 0 2.25 0L15.75 0C16.34 0 16.91 0.23 17.34 0.65C17.76 1.08 18 1.65 18 2.25L18 15.75C18 16.34 17.76 16.91 17.34 17.34C16.91 17.76 16.34 18 15.75 18L2.25 18C1.65 18 1.08 17.76 0.65 17.34C0.23 16.91 0 16.34 0 15.75L0 2.25ZM10.04 7.41L7.46 7.73L7.37 8.16L7.88 8.25C8.21 8.33 8.28 8.45 8.2 8.78L7.37 12.68C7.15 13.69 7.49 14.16 8.28 14.16C8.89 14.16 9.61 13.88 9.93 13.49L10.03 13.02C9.8 13.22 9.48 13.3 9.26 13.3C8.95 13.3 8.84 13.08 8.92 12.7L10.04 7.41ZM9 6.18C9.29 6.18 9.58 6.06 9.79 5.85C10 5.64 10.12 5.36 10.12 5.06C10.12 4.76 10 4.47 9.79 4.26C9.58 4.05 9.29 3.93 9 3.93C8.7 3.93 8.41 4.05 8.2 4.26C7.99 4.47 7.87 4.76 7.87 5.06C7.87 5.36 7.99 5.64 8.2 5.85C8.41 6.06 8.7 6.18 9 6.18Z" fill="#616161" fill-opacity="1.000000" fill-rule="evenodd"/>
	</g>
</svg>
