<svg width="18.000000" height="18.000000" viewBox="0 0 18 18" fill="none" xmlns="http://www.w3.org/2000/svg" xmlns:xlink="http://www.w3.org/1999/xlink">
	<desc>
			Created with Pixso.
	</desc>
	<defs>
		<clipPath id="clip116_499">
			<rect id="LockFill" rx="0.000000" width="17.000000" height="17.000000" transform="translate(0.500000 0.500000)" fill="white" fill-opacity="0"/>
		</clipPath>
	</defs>
	<rect id="LockFill" rx="0.000000" width="17.000000" height="17.000000" transform="translate(0.500000 0.500000)" fill="#FFFFFF" fill-opacity="0"/>
	<g clip-path="url(#clip116_499)">
		<path id="Vector" d="M2.81 10.12C2.81 9.52 3.04 8.95 3.47 8.53C3.89 8.11 4.46 7.87 5.06 7.87L12.93 7.87C13.53 7.87 14.1 8.11 14.52 8.53C14.95 8.95 15.18 9.52 15.18 10.12L15.18 15.75C15.18 16.34 14.95 16.91 14.52 17.34C14.1 17.76 13.53 18 12.93 18L5.06 18C4.46 18 3.89 17.76 3.47 17.34C3.04 16.91 2.81 16.34 2.81 15.75L2.81 10.12Z" fill="#616161" fill-opacity="1.000000" fill-rule="nonzero"/>
		<path id="Vector" d="M5.06 4.5C5.06 3.45 5.47 2.45 6.21 1.71C6.95 0.97 7.95 0.56 9 0.56C10.04 0.56 11.04 0.97 11.78 1.71C12.52 2.45 12.93 3.45 12.93 4.5L12.93 7.87L11.81 7.87L11.81 4.5C11.81 3.75 11.51 3.03 10.98 2.51C10.46 1.98 9.74 1.68 9 1.68C8.25 1.68 7.53 1.98 7.01 2.51C6.48 3.03 6.18 3.75 6.18 4.5L6.18 7.87L5.06 7.87L5.06 4.5Z" fill="#616161" fill-opacity="1.000000" fill-rule="evenodd"/>
	</g>
</svg>
