<svg width="250.000000" height="100.000000" viewBox="0 0 250 100" fill="none" xmlns="http://www.w3.org/2000/svg" xmlns:xlink="http://www.w3.org/1999/xlink">
	<desc>
			Created with Pixso.
	</desc>
	<defs>
		<clipPath id="clip2_422">
			<rect id="leaf " rx="0.000000" width="36.955379" height="36.955379" transform="translate(4.698749 48.002216) rotate(-48.000000)" fill="white" fill-opacity="0"/>
		</clipPath>
		<clipPath id="clip2_424">
			<rect id="icon" rx="0.000000" width="63.108551" height="63.108551" transform="translate(0.126724 16.126724)" fill="white" fill-opacity="0"/>
		</clipPath>
		<clipPath id="clip2_426">
			<rect id="logo-web/footer" rx="0.000000" width="249.000000" height="99.000000" transform="translate(0.500000 0.500000)" fill="white" fill-opacity="0"/>
		</clipPath>
	</defs>
	<g clip-path="url(#clip2_426)">
		<path id="wordmark" d="M236 43L232.64 43L232.64 58.38L227.73 58.38L227.73 43L225.55 43L225.55 38.97L227.73 38.97L227.73 37.99C227.73 35.6 228.4 33.85 229.74 32.73C231.07 31.61 233.09 31.08 235.79 31.15L235.79 35.29C234.61 35.26 233.79 35.46 233.33 35.88C232.87 36.3 232.64 37.06 232.64 38.16L232.64 38.97L236 38.97L236 43ZM148.1 48.6C148.1 46.64 148.48 44.9 149.24 43.38C150.02 41.86 151.08 40.7 152.42 39.88C153.76 39.06 155.25 38.65 156.88 38.65C158.13 38.65 159.32 38.93 160.45 39.49C161.58 40.03 162.47 40.75 163.14 41.67L163.14 32.45L168.06 32.45L168.06 58.38L163.14 58.38L163.14 55.51C162.54 56.46 161.7 57.24 160.62 57.82C159.53 58.4 158.28 58.7 156.85 58.7C155.23 58.7 153.76 58.28 152.42 57.43C151.08 56.59 150.02 55.41 149.24 53.89C148.48 52.35 148.1 50.59 148.1 48.6ZM177.63 32.45L177.63 58.38L172.79 58.38L172.79 32.45L177.63 32.45ZM75.3 46.12Q75.3 42.9 76.56 40.3Q76.71 39.98 76.89 39.67Q77.91 37.87 79.37 36.58Q80.25 35.81 81.28 35.22Q81.98 34.82 82.72 34.51Q84.95 33.61 87.54 33.61Q90.57 33.61 93.04 34.78L93.04 34.78Q93.87 35.18 94.63 35.71C96.66 37.11 98.08 39.05 98.89 41.53L93.32 41.53Q92.68 40.17 91.63 39.34Q91.31 39.1 90.97 38.9C89.97 38.31 88.82 38.02 87.51 38.02Q85.89 38.02 84.53 38.62Q84.12 38.8 83.74 39.04Q83.33 39.29 82.96 39.59Q81.87 40.48 81.18 41.84Q80.28 43.66 80.28 46.12C80.28 47.73 80.58 49.15 81.18 50.39Q81.86 51.72 82.91 52.62Q83.3 52.95 83.74 53.23Q84.04 53.41 84.37 53.56Q85.79 54.21 87.51 54.21C88.82 54.21 89.97 53.92 90.97 53.33Q91.33 53.11 91.66 52.84Q92.69 52 93.32 50.67L98.89 50.67Q98.1 53.11 96.53 54.86Q95.69 55.79 94.63 56.52Q94.05 56.92 93.43 57.24L93.43 57.24Q90.84 58.59 87.54 58.59C85.24 58.59 83.15 58.06 81.28 57.01Q80.11 56.33 79.15 55.44Q77.83 54.21 76.89 52.56Q76.71 52.25 76.56 51.93L76.56 51.93Q75.3 49.33 75.3 46.12ZM101.78 48.6Q101.78 45.66 102.92 43.38Q103.91 41.47 105.46 40.3Q105.75 40.08 106.07 39.88C107.41 39.06 108.89 38.65 110.53 38.65C111.96 38.65 113.21 38.94 114.27 39.53Q115.89 40.4 116.86 41.74L116.86 38.97L121.74 38.97L121.74 58.38L116.86 58.38L116.86 55.54Q115.93 56.91 114.27 57.82Q112.64 58.7 110.5 58.7C108.88 58.7 107.41 58.28 106.07 57.43Q105.73 57.22 105.41 56.97L105.41 56.97Q103.89 55.78 102.92 53.89C102.16 52.35 101.78 50.59 101.78 48.6ZM200.23 48.25C200.23 48.95 200.18 49.58 200.09 50.15L186.08 50.15C186.2 51.55 186.68 52.65 187.53 53.44C188.39 54.23 189.44 54.63 190.68 54.63C192.48 54.63 193.76 53.85 194.52 52.28L199.75 52.28C199.19 54.15 198.13 55.69 196.56 56.91C194.99 58.1 193.07 58.7 190.79 58.7C188.94 58.7 187.28 58.29 185.8 57.47C184.35 56.63 183.21 55.45 182.38 53.93Q181.17 51.65 181.17 48.67Q181.17 45.66 182.38 43.38C183.19 41.86 184.32 40.7 185.77 39.88C187.22 39.06 188.89 38.65 190.79 38.65C192.61 38.65 194.23 39.05 195.66 39.84Q196.71 40.41 197.52 41.22L197.52 41.22Q198.41 42.09 199.02 43.24C199.83 44.69 200.23 46.36 200.23 48.25ZM202.52 48.6Q202.52 45.66 203.66 43.38C204.45 41.86 205.49 40.7 206.81 39.88C208.15 39.06 209.63 38.65 211.27 38.65C212.7 38.65 213.95 38.94 215.01 39.53C216.09 40.11 216.96 40.85 217.6 41.74L217.6 38.97L222.48 38.97L222.48 58.38L217.6 58.38L217.6 55.54C216.98 56.45 216.11 57.21 215.01 57.82C213.92 58.4 212.67 58.7 211.24 58.7Q209.86 58.7 208.61 58.29Q207.67 57.98 206.81 57.43C205.49 56.59 204.45 55.41 203.66 53.89C202.9 52.35 202.52 50.59 202.52 48.6ZM137.09 38.69C139.37 38.69 141.22 39.42 142.63 40.89C144.03 42.34 144.74 44.38 144.74 46.99L144.74 58.38L139.89 58.38L139.89 47.66C139.89 46.12 139.51 44.94 138.75 44.12Q138.43 43.76 138.04 43.51Q137.05 42.86 135.64 42.86C134.3 42.86 133.24 43.28 132.45 44.12C131.69 44.94 131.31 46.12 131.31 47.66L131.31 58.38L126.47 58.38L126.47 38.97L131.31 38.97L131.31 41.39C131.96 40.54 132.78 39.89 133.77 39.42C134.78 38.93 135.89 38.69 137.09 38.69ZM195.21 46.85C195.19 45.59 194.74 44.59 193.86 43.84C192.99 43.07 191.92 42.68 190.65 42.68C189.45 42.68 188.43 43.06 187.6 43.8C186.8 44.53 186.3 45.54 186.12 46.85L195.21 46.85ZM116.86 48.67C116.86 47.48 116.63 46.47 116.17 45.63C115.71 44.76 115.09 44.11 114.3 43.66C113.52 43.2 112.68 42.96 111.78 42.96C110.88 42.96 110.05 43.18 109.29 43.63Q109.18 43.69 109.08 43.76L109.07 43.76Q108.08 44.42 107.42 45.59C106.96 46.43 106.73 47.44 106.73 48.6C106.73 49.77 106.96 50.8 107.42 51.69Q108.07 52.85 109.05 53.53L109.05 53.53Q109.16 53.61 109.29 53.68C110.07 54.15 110.9 54.39 111.78 54.39C112.68 54.39 113.52 54.16 114.3 53.72C115.09 53.25 115.71 52.6 116.17 51.76C116.63 50.89 116.86 49.87 116.86 48.67ZM163.18 48.67C163.18 47.48 162.95 46.47 162.49 45.63C162.03 44.76 161.4 44.11 160.62 43.66C159.83 43.2 158.99 42.96 158.09 42.96C157.19 42.96 156.36 43.18 155.6 43.63C154.84 44.07 154.22 44.73 153.73 45.59C153.27 46.43 153.04 47.44 153.04 48.6C153.04 49.77 153.27 50.8 153.73 51.69C154.22 52.55 154.84 53.22 155.6 53.68C156.39 54.15 157.22 54.39 158.09 54.39C158.99 54.39 159.83 54.16 160.62 53.72C161.4 53.25 162.03 52.6 162.49 51.76C162.95 50.89 163.18 49.87 163.18 48.67ZM217.6 48.67C217.6 47.48 217.37 46.47 216.91 45.63C216.45 44.76 215.83 44.11 215.04 43.66C214.26 43.2 213.42 42.96 212.52 42.96C211.62 42.96 210.79 43.18 210.03 43.63C209.27 44.07 208.64 44.73 208.16 45.59Q207.47 46.85 207.47 48.6Q207.47 50.36 208.16 51.69C208.64 52.55 209.27 53.22 210.03 53.68C210.81 54.15 211.64 54.39 212.52 54.39C213.42 54.39 214.26 54.16 215.04 53.72C215.83 53.25 216.45 52.6 216.91 51.76C217.37 50.89 217.6 49.87 217.6 48.67Z" fill="#FFFFFF" fill-opacity="1.000000" fill-rule="evenodd"/>
		<g clip-path="url(#clip2_424)">
			<mask id="mask2_417" mask-type="alpha" maskUnits="userSpaceOnUse" x="0.000000" y="16.000000" width="63.362000" height="63.362000">
				<circle id="bg" cx="31.681152" cy="47.681030" r="31.681000" fill="#F578A5" fill-opacity="1.000000"/>
			</mask>
			<g mask="url(#mask2_417)">
				<circle id="bg" cx="31.681152" cy="47.681030" r="31.681000" fill="#FFFFFF" fill-opacity="1.000000"/>
			</g>
			<g mask="url(#mask2_417)">
				<path id="candle" d="M45.82 65.16L19.25 64.25C18.46 64.23 17.8 64.87 17.8 65.66L17.8 78.9L47.18 78.9L47.18 66.57C47.18 65.81 46.58 65.19 45.82 65.16Z" fill="#272727" fill-opacity="1.000000" fill-rule="nonzero"/>
				<path id="candle" d="M45.87 63.78L19.3 62.87Q18.99 62.86 18.7 62.91Q18.43 62.96 18.18 63.06Q17.93 63.16 17.71 63.3Q17.47 63.45 17.26 63.65Q17.06 63.85 16.9 64.09Q16.75 64.3 16.64 64.55Q16.53 64.8 16.47 65.06Q16.41 65.36 16.41 65.66L16.41 80.28L48.57 80.28L48.57 66.57Q48.57 66.28 48.51 66Q48.46 65.74 48.36 65.5Q48.26 65.26 48.12 65.05Q47.97 64.82 47.78 64.63Q47.59 64.43 47.37 64.27Q47.16 64.13 46.93 64.02Q46.69 63.91 46.44 63.85Q46.16 63.79 45.87 63.78ZM19.25 64.25L45.82 65.16C46.58 65.19 47.18 65.81 47.18 66.57L47.18 78.9L17.8 78.9L17.8 65.66C17.8 64.87 18.46 64.23 19.25 64.25Z" fill="#272727" fill-opacity="1.000000" fill-rule="evenodd"/>
				<rect id="leaf " rx="0.000000" width="36.955379" height="36.955379" transform="translate(4.698749 48.002216) rotate(-48.000000)" fill="#FFFFFF" fill-opacity="0"/>
				<g clip-path="url(#clip2_422)">
					<path id="Vector" d="M23.21 38.24C29.66 29.26 26.89 21.96 26.89 21.95C26.76 21.58 26.94 21.18 27.31 21.04C27.49 20.97 27.7 20.98 27.87 21.07C39.53 26.64 44.54 33.84 45.5 40.35C45.88 42.88 45.64 45.46 44.81 47.88C44.04 50.11 42.76 52.12 41.07 53.77C37.82 56.91 33.28 58.35 28.8 56.89C27.66 56.51 26.57 55.96 25.6 55.26C23.63 53.85 22.14 51.88 21.33 49.61C20.46 47.17 20.43 44.52 21.25 42.07C21.7 40.7 22.36 39.41 23.21 38.24Z" fill="#272727" fill-opacity="1.000000" fill-rule="nonzero"/>
					<path id="Vector" d="M27.04 22.18C26.75 21.91 26.74 21.46 27.01 21.18C27.28 20.9 27.72 20.88 28.01 21.15C28.03 21.17 28.05 21.19 28.07 21.22C28.09 21.24 33.72 27.14 34.52 38.53L34.53 38.64C34.7 41.3 34.62 43.98 34.28 46.63L38.12 43.68C38.44 43.46 38.88 43.54 39.11 43.86C39.31 44.15 39.26 44.55 39 44.79L33.97 48.63C32.84 55.24 28.88 64.61 34.13 70.46C34.38 70.76 34.35 71.21 34.05 71.46C33.77 71.7 33.34 71.68 33.08 71.42C26.79 64.4 31.37 55.7 32.62 48.18L32.64 48.07C33.15 45.08 33.32 42.04 33.16 39.01L28.64 35.69C28.32 35.47 28.23 35.03 28.45 34.71C28.67 34.39 29.11 34.31 29.44 34.53C29.45 34.54 29.46 34.54 29.48 34.55L32.98 37.13C31.89 27.25 27.06 22.2 27.04 22.18Z" fill="#FFFFFF" fill-opacity="1.000000" fill-rule="nonzero"/>
				</g>
			</g>
		</g>
	</g>
</svg>
