<svg width="86.000000" height="15.000000" viewBox="0 0 86 15" fill="none" xmlns="http://www.w3.org/2000/svg" xmlns:xlink="http://www.w3.org/1999/xlink">
	<desc>
			Created with Pixso.
	</desc>
	<defs/>
	<path id="wordmark" d="M86 6.45L84.2 6.45L84.2 14.82L81.57 14.82L81.57 6.45L80.4 6.45L80.4 4.25L81.57 4.25L81.57 3.72C81.57 2.42 81.93 1.47 82.64 0.86Q83.72 -0.06 85.88 0L85.88 2.25C85.25 2.24 84.82 2.35 84.57 2.57C84.32 2.8 84.2 3.22 84.2 3.81L84.2 4.25L86 4.25L86 6.45ZM38.95 9.5C38.95 8.43 39.16 7.48 39.57 6.66C39.98 5.83 40.55 5.19 41.27 4.75C41.98 4.3 42.78 4.08 43.66 4.08Q44.08 4.08 44.49 4.16Q45.04 4.28 45.56 4.54Q46.36 4.92 46.87 5.54L46.87 5.54Q46.94 5.63 47.01 5.72L47.01 0.7L49.64 0.7L49.64 14.82L47.01 14.82L47.01 13.26C46.69 13.78 46.24 14.2 45.66 14.52C45.08 14.84 44.4 15 43.64 15C42.77 15 41.98 14.77 41.27 14.31C40.55 13.85 39.98 13.21 39.57 12.38C39.16 11.54 38.95 10.58 38.95 9.5ZM54.76 0.7L54.76 14.82L52.17 14.82L52.17 0.7L54.76 0.7ZM0 8.15Q0 6.35 0.71 4.9Q0.77 4.77 0.85 4.63Q1.42 3.61 2.25 2.88L2.25 2.88Q2.69 2.51 3.2 2.21Q3.6 1.97 4.04 1.8Q5.2 1.33 6.55 1.33Q8.12 1.33 9.42 1.94Q9.9 2.17 10.34 2.48Q10.9 2.87 11.35 3.37Q12.19 4.32 12.62 5.65L9.64 5.65C9.34 5.01 8.92 4.53 8.38 4.21C7.85 3.9 7.23 3.74 6.53 3.74Q5.69 3.74 4.98 4.05Q4.74 4.15 4.51 4.29C3.93 4.65 3.48 5.16 3.14 5.82Q2.66 6.81 2.66 8.15Q2.66 9.46 3.14 10.47C3.48 11.13 3.93 11.65 4.51 12.02Q4.7 12.13 4.89 12.22Q5.64 12.55 6.53 12.55C7.23 12.55 7.85 12.39 8.38 12.08C8.92 11.75 9.34 11.26 9.64 10.63L12.62 10.63Q12.18 12.01 11.3 12.98Q10.87 13.44 10.34 13.81Q10 14.05 9.63 14.24Q8.26 14.94 6.55 14.94Q5.15 14.94 3.95 14.45L3.95 14.45Q3.56 14.29 3.2 14.08Q2.62 13.74 2.14 13.29Q1.38 12.6 0.85 11.66Q0.77 11.52 0.71 11.39Q0 9.94 0 8.15ZM14.17 9.5Q14.17 7.9 14.78 6.66C15.2 5.83 15.76 5.19 16.46 4.75C17.18 4.3 17.98 4.08 18.85 4.08C19.62 4.08 20.28 4.24 20.85 4.56C21.43 4.88 21.89 5.28 22.24 5.76L22.24 4.25L24.85 4.25L24.85 14.82L22.24 14.82L22.24 13.28C21.91 13.77 21.44 14.19 20.85 14.52Q19.98 15 18.83 15C17.97 15 17.18 14.77 16.46 14.31Q16.31 14.21 16.17 14.1L16.17 14.1Q15.32 13.44 14.78 12.38Q14.17 11.12 14.17 9.5ZM66.85 9.31C66.85 9.69 66.83 10.03 66.78 10.34L59.28 10.34C59.34 11.1 59.6 11.7 60.06 12.13C60.52 12.57 61.08 12.78 61.74 12.78C62.71 12.78 63.39 12.36 63.8 11.5L66.6 11.5Q66.38 12.23 65.98 12.84Q65.55 13.5 64.89 14.02C64.05 14.67 63.02 15 61.8 15C60.81 15 59.92 14.77 59.13 14.33C58.36 13.87 57.75 13.23 57.3 12.4C56.87 11.57 56.65 10.62 56.65 9.54C56.65 8.44 56.87 7.48 57.3 6.66C57.73 5.83 58.34 5.19 59.12 4.75C59.89 4.3 60.79 4.08 61.8 4.08C62.78 4.08 63.65 4.3 64.41 4.73C65.19 5.16 65.79 5.78 66.21 6.58C66.64 7.37 66.85 8.28 66.85 9.31ZM68.08 9.5Q68.08 7.9 68.69 6.66C69.11 5.83 69.67 5.19 70.37 4.75C71.09 4.3 71.89 4.08 72.76 4.08C73.53 4.08 74.19 4.24 74.76 4.56C75.34 4.88 75.81 5.28 76.15 5.76L76.15 4.25L78.76 4.25L78.76 14.82L76.15 14.82L76.15 13.28C75.82 13.77 75.35 14.19 74.76 14.52Q73.89 15 72.74 15C71.88 15 71.09 14.77 70.37 14.31C69.67 13.85 69.11 13.21 68.69 12.38Q68.08 11.12 68.08 9.5ZM33.06 4.1C34.29 4.1 35.27 4.5 36.03 5.3C36.78 6.09 37.16 7.2 37.16 8.62L37.16 14.82L34.56 14.82L34.56 8.98C34.56 8.15 34.36 7.5 33.95 7.06Q33.77 6.85 33.55 6.71Q33.03 6.37 32.29 6.37C31.57 6.37 31 6.6 30.58 7.06C30.18 7.5 29.97 8.15 29.97 8.98L29.97 14.82L27.38 14.82L27.38 4.25L29.97 4.25L29.97 5.57C30.32 5.11 30.76 4.76 31.29 4.5C31.83 4.23 32.42 4.1 33.06 4.1ZM64.17 8.55C64.16 7.86 63.92 7.31 63.45 6.91Q63.2 6.68 62.91 6.54Q62.38 6.28 61.73 6.28C61.08 6.28 60.54 6.48 60.1 6.89C59.66 7.28 59.4 7.83 59.3 8.55L64.17 8.55ZM22.24 9.54C22.24 8.89 22.12 8.34 21.87 7.88C21.62 7.41 21.29 7.05 20.87 6.81Q20.51 6.59 20.13 6.5L20.13 6.5Q19.83 6.43 19.52 6.43C19.04 6.43 18.59 6.55 18.19 6.79C17.78 7.03 17.44 7.39 17.19 7.86Q16.82 8.55 16.82 9.5C16.82 10.14 16.94 10.7 17.19 11.18C17.44 11.65 17.78 12.01 18.19 12.27C18.6 12.52 19.05 12.65 19.52 12.65C20 12.65 20.45 12.53 20.87 12.29C21.29 12.03 21.62 11.68 21.87 11.22C22.12 10.75 22.24 10.19 22.24 9.54ZM47.03 9.54C47.03 8.89 46.9 8.34 46.66 7.88C46.41 7.41 46.08 7.05 45.66 6.81C45.24 6.56 44.79 6.43 44.3 6.43C43.82 6.43 43.38 6.55 42.97 6.79C42.56 7.03 42.23 7.39 41.97 7.86C41.73 8.32 41.6 8.86 41.6 9.5C41.6 10.14 41.73 10.7 41.97 11.18C42.23 11.65 42.56 12.01 42.97 12.27C43.39 12.52 43.84 12.65 44.3 12.65C44.79 12.65 45.24 12.53 45.66 12.29C46.08 12.03 46.41 11.68 46.66 11.22C46.9 10.75 47.03 10.19 47.03 9.54ZM76.15 9.54C76.15 8.89 76.03 8.34 75.78 7.88C75.53 7.41 75.2 7.05 74.78 6.81C74.36 6.56 73.91 6.43 73.43 6.43C72.95 6.43 72.5 6.55 72.1 6.79C71.69 7.03 71.36 7.39 71.1 7.86Q70.73 8.55 70.73 9.5C70.73 10.14 70.85 10.7 71.1 11.18C71.36 11.65 71.69 12.01 72.1 12.27C72.52 12.52 72.96 12.65 73.43 12.65C73.91 12.65 74.36 12.53 74.78 12.29C75.2 12.03 75.53 11.68 75.78 11.22C76.03 10.75 76.15 10.19 76.15 9.54Z" fill="#56B280" fill-opacity="1.000000" fill-rule="evenodd"/>
</svg>
