<?xml version="1.0" encoding="utf-8"?>
<!-- Generator: Adobe Illustrator 26.3.1, SVG Export Plug-In . SVG Version: 6.00 Build 0)  -->
<svg version="1.1" id="Layer_1" xmlns="http://www.w3.org/2000/svg" xmlns:xlink="http://www.w3.org/1999/xlink" x="0px" y="0px"
	 viewBox="0 0 1280 800" style="enable-background:new 0 0 1280 800;" xml:space="preserve">
<style type="text/css">
	.st0{stroke:#231F20;stroke-miterlimit:10;}
</style>
<path class="st0" d="M640.8,302.96l-0.81-0.08l-76.69,8.04v140.57L640,497.12l76.69-45.63V310.92L640.8,302.96z M706.66,445.78
	L640,485.45l-66.66-39.66v-57.62l66.37,39.51l0.11,7.16l-45.53-27.1l-0.07,6.95l45.71,27.47l0.11,7.35l-45.7-27.19l-0.07,6.95
	L640,456.75l46.15-27.62v-6.98l-0.06,0.03v-2.39v-2.86v-17.46l20.57-12.28V445.78z M706.61,379.72l-18.24,10.74l-8.42,4.96
	l-40.15-23.88l-0.07,6.95l34.32,20.41l-0.3,0.18l-0.74,0.44l-4.88,2.87l-28.33-16.85l-0.07,6.95l22.36,13.3l-5.28,3.53l-0.13,0.08
	l-16.89-9.95l-0.07,6.95l11.08,6.53l-11.29,6.78l-66.04-39.26l66.14-39.75v0.01L706.61,379.72z M706.66,372.73l-67.02-39.51v-0.01
	l-0.01,0l-0.01,0v0.01l-66.28,39.46v-52.73l66.66-6.99l66.66,6.99V372.73z"/>
</svg>
