<?xml version="1.0" encoding="utf-8"?>
<!-- Generator: Adobe Illustrator 26.3.1, SVG Export Plug-In . SVG Version: 6.00 Build 0)  -->
<svg version="1.1" id="Layer_1" xmlns="http://www.w3.org/2000/svg" xmlns:xlink="http://www.w3.org/1999/xlink" x="0px" y="0px"
	 viewBox="0 0 32 32" style="enable-background:new 0 0 32 32;" xml:space="preserve">
<style type="text/css">
	.st0{fill:#333333;}
</style>
<path id="mail" class="st0" d="M28,5H4C1.79,5,0,6.79,0,9v13c0,2.21,1.79,4,4,4h24c2.21,0,4-1.79,4-4V9C32,6.79,30.21,5,28,5z
	 M2,10.25l7,5.25l-7,5.25V10.25z M30,22c0,1.1-0.9,2-2,2H4c-1.1,0-2-0.9-2-2l7.83-5.88l4.37,3.28c0.53,0.4,1.17,0.6,1.8,0.6
	c0.63,0,1.27-0.2,1.8-0.6l4.37-3.28L30,22L30,22z M30,20.75l-7-5.25l7-5.25V20.75z M17.2,18.6C16.85,18.86,16.44,19,16,19
	c-0.44,0-0.85-0.14-1.2-0.4l-4.13-3.1l-0.83-0.62L2,9v0c0-1.1,0.9-2,2-2h24c1.1,0,2,0.9,2,2L17.2,18.6z"/>
</svg>
