<?xml version="1.0" encoding="utf-8"?>
<!-- Generator: Adobe Illustrator 26.3.1, SVG Export Plug-In . SVG Version: 6.00 Build 0)  -->
<svg version="1.1" id="Layer_1" xmlns="http://www.w3.org/2000/svg" xmlns:xlink="http://www.w3.org/1999/xlink" x="0px" y="0px"
	 viewBox="0 0 66 100.8" style="enable-background:new 0 0 66 100.8;" xml:space="preserve">
<style type="text/css">
	.st0{fill:#FFFFFF;}
	.st1{fill:#6BC6B3;}
</style>
<path class="st0" d="M56.33,9.23C43.44-3.08,22.56-3.08,9.67,9.23c-12.89,12.3-12.89,32.25,0,44.54c0,0,23.32,21.83,23.32,47.03
	c0-25.2,23.34-47.03,23.34-47.03C69.23,41.48,69.23,21.52,56.33,9.23z"/>
<path class="st1" d="M47.04,45.52c-0.64-3.28,0.13-6.95,0.03-10.28c-0.12-3.76-0.71-7.48-0.67-11.25c0.04-3.04,0.54-6.17-0.5-9.09
	c0.07-0.33,0.13-0.66,0.2-1c0.27-1.46-4.58-0.69-5.34,0.65c-0.48,0.39-0.73,0.86-0.52,1.34c0.05,0.12,0.1,0.24,0.14,0.37
	c-0.92,4.48-2.2,8.83-3.67,13.17c-0.56,1.66-1.24,3.29-1.82,4.95c-0.81-1.55-1.64-3.07-2.3-4.73c-1.92-4.81-3.66-9.66-6-14.28
	c0.27-2.14-4.48-1.92-5.42,0.04c-1.13,2.37-0.99,4.76-0.61,7.3c0.42,2.86,0.49,5.67,0.53,8.55c0.07,5.57,0.5,11.12,0.58,16.68
	c-0.5,0.55-0.65,1.23-0.13,1.92c0.23,0.3,0.5,0.54,0.8,0.77c1.27,1.01,4.9,0.15,4.89-1.78c-0.02-5.77-0.44-11.53-0.59-17.3
	c-0.02-0.56-0.03-1.13-0.03-1.69c0.08,0.2,0.16,0.41,0.24,0.61c0.9,2.25,1.83,4.43,3.06,6.51c1.21,2.07,1.82,4.29,2.52,6.55
	c-0.26,0.3-0.42,0.65-0.33,0.99c-0.05,0.25,0.1,0.41,0.35,0.5c0.89,0.77,2.58,0.38,3.51-0.01c0.4-0.17,0.79-0.36,1.16-0.59
	c0.48-0.3,1.24-0.95,1.02-1.62c-0.04-0.13-0.08-0.26-0.12-0.39c0.66-1.78,0.99-3.62,1.35-5.5c0.38-2,1.09-3.89,1.81-5.79
	c0.07,0.87,0.15,1.73,0.22,2.6c0.29,3.57,0.05,7.1,0.01,10.67c-0.01,1.19,0.07,2.29,0.31,3.45c0.1,0.48,0.51,2.53,0.39,2.64
	c-0.86,0.79-0.61,1.76,0.54,2.01c1.28,0.28,2.91-0.15,3.88-1.04C48.21,49.91,47.41,47.48,47.04,45.52z"/>
</svg>
