<?xml version="1.0" encoding="utf-8"?>
<!-- Generator: Adobe Illustrator 26.3.1, SVG Export Plug-In . SVG Version: 6.00 Build 0)  -->
<svg version="1.1" id="Layer_2" xmlns="http://www.w3.org/2000/svg" xmlns:xlink="http://www.w3.org/1999/xlink" x="0px" y="0px"
	 viewBox="0 0 24.83 24.33" style="enable-background:new 0 0 24.83 24.33;" xml:space="preserve">
<g>
	<g id="UrwUhy_2_">
		<g>
			<path d="M17.32,24.33c-0.37,0-0.74,0-1.12,0c-4.9-0.58-8.5-2.86-11.11-5.77C2.47,15.64,0.4,11.88,0,6.82c0-0.45,0-0.91,0-1.36
				c0.09-0.92,0.54-1.55,1.07-2.09C1.72,2.71,2.7,1.85,3.59,1.82C4.25,1.8,5.37,2.27,5.82,2.89c0.39,0.53,0.6,1.59,0.78,2.38
				c0.18,0.8,0.6,1.95,0.48,2.72c-0.18,1.2-1.76,1.7-2.23,2.57c1.55,3.72,4.09,6.46,7.47,8.35c0.85-0.46,1.59-1.86,2.77-1.89
				c0.43-0.01,0.97,0.21,1.41,0.34c0.48,0.14,0.89,0.33,1.31,0.48c0.71,0.27,1.96,0.62,2.38,1.21c0.43,0.61,0.68,1.61,0.58,2.23
				C20.57,22.51,18.54,23.88,17.32,24.33z"/>
		</g>
	</g>
	<path d="M12.53,1.53c5.95,0,10.77,4.82,10.77,10.77h1.53c0-6.79-5.51-12.3-12.3-12.3V1.53z"/>
	<path d="M12.53,9.33v1.55c0.79,0,1.42,0.64,1.42,1.42h1.55C15.5,10.66,14.17,9.33,12.53,9.33z"/>
	<path d="M12.53,6.25c3.34,0,6.06,2.71,6.06,6.05h1.59c0-4.22-3.42-7.64-7.64-7.64V6.25z"/>
</g>
</svg>
