<?xml version="1.0" encoding="utf-8"?>
<!-- Generator: Adobe Illustrator 26.3.1, SVG Export Plug-In . SVG Version: 6.00 Build 0)  -->
<svg version="1.1" id="Laag_1" xmlns="http://www.w3.org/2000/svg" xmlns:xlink="http://www.w3.org/1999/xlink" x="0px" y="0px"
	 viewBox="0 0 100.68 76.89" style="enable-background:new 0 0 100.68 76.89;" xml:space="preserve">
<style type="text/css">
	.st0{fill:#63D1BB;}
	.st1{fill:#FFFFFF;}
</style>
<g>
	<g>
		<path class="st0" d="M96.96,18.15c0,0-0.92-7.01-3.79-10.08C89.54,4.03,85.5,4,83.63,3.77c-13.33-1.02-33.3-1.02-33.3-1.02h-0.05
			c0,0-19.98,0-33.3,1.02C15.1,4,11.06,4.03,7.43,8.07c-2.84,3.1-3.79,10.08-3.79,10.08s-0.9,8.21-0.9,16.42v7.7
			c0,8.21,0.95,16.42,0.95,16.42s0.92,7.01,3.79,10.08c3.63,4.04,8.36,3.91,10.49,4.35c7.62,0.77,32.36,1.02,32.36,1.02
			s20-0.03,33.33-1.05c1.87-0.23,5.91-0.26,9.54-4.3c2.84-3.07,3.79-10.08,3.79-10.08s0.95-8.21,0.95-16.42v-7.7
			C97.9,26.36,96.96,18.15,96.96,18.15z"/>
		<path class="st1" d="M50.31,76.89H50.3c-1.01-0.01-24.95-0.27-32.6-1.04l-0.14-0.01l-0.14-0.03c-0.27-0.06-0.67-0.11-1.13-0.17
			c-2.5-0.33-7.16-0.94-10.84-5.02C2.1,67.01,1.08,59.85,0.97,59.05l0-0.04C0.93,58.66,0,50.54,0,42.27v-7.7
			c0-8.27,0.88-16.38,0.91-16.72l0.01-0.07c0.11-0.8,1.16-7.93,4.47-11.56c4-4.44,8.53-4.9,10.71-5.12
			c0.19-0.02,0.37-0.04,0.53-0.06l0.13-0.01C30.04,0.01,50.07,0,50.28,0h0.05c0.2,0,20.24,0.01,33.51,1.03l0.13,0.01
			c0.16,0.02,0.34,0.04,0.53,0.06c2.18,0.22,6.71,0.68,10.7,5.11c3.35,3.62,4.38,10.77,4.48,11.58l0,0.04
			c0.04,0.34,0.96,8.46,0.99,16.75v7.71c0,8.27-0.93,16.4-0.96,16.74l-0.01,0.05c-0.11,0.81-1.16,7.95-4.48,11.56
			c-3.99,4.43-8.53,4.9-10.71,5.12c-0.19,0.02-0.37,0.04-0.53,0.06l-0.13,0.01c-13.28,1.02-33.33,1.06-33.53,1.06L50.31,76.89
			L50.31,76.89z M18.37,70.39c7.48,0.73,31.22,0.99,31.97,1c0.66,0,20.13-0.05,33.05-1.04c0.18-0.02,0.37-0.04,0.58-0.06
			c1.84-0.19,4.61-0.47,7.19-3.33l0.03-0.03c1.83-1.97,2.85-6.93,3.08-8.55c0.06-0.51,0.93-8.36,0.93-16.08v-7.7
			c-0.02-7.76-0.9-15.63-0.95-16.11c-0.32-2.38-1.43-6.79-3.07-8.54l-0.04-0.04c-2.58-2.87-5.35-3.15-7.19-3.34
			c-0.21-0.02-0.4-0.04-0.58-0.06C70.3,5.52,50.53,5.5,50.33,5.5h-0.05c-0.2,0-19.97,0.01-33.03,1.01
			c-0.18,0.02-0.37,0.04-0.58,0.06c-1.83,0.19-4.61,0.47-7.19,3.34L9.46,9.93c-1.83,1.99-2.86,6.92-3.08,8.55
			c-0.06,0.59-0.88,8.4-0.88,16.09v7.7c0,7.75,0.87,15.6,0.93,16.08c0.32,2.38,1.43,6.79,3.07,8.54l0.04,0.04
			c2.32,2.58,5.3,2.97,7.48,3.26C17.49,70.25,17.95,70.31,18.37,70.39z"/>
	</g>
</g>
<g>
	<polygon class="st1" points="38.43,20.58 38.43,56.29 68.18,38.43 	"/>
</g>
</svg>
