<?xml version="1.0" encoding="utf-8"?>
<!-- Generator: Adobe Illustrator 26.3.1, SVG Export Plug-In . SVG Version: 6.00 Build 0)  -->
<svg version="1.1" id="Layer_1" xmlns="http://www.w3.org/2000/svg" xmlns:xlink="http://www.w3.org/1999/xlink" x="0px" y="0px"
	 viewBox="0 0 40.73 40.73" style="enable-background:new 0 0 40.73 40.73;" xml:space="preserve">
<style type="text/css">
	.st0{fill:#231F20;}
</style>
<g>
	<path class="st0" d="M21,9.57c6.59,0,11.96,5.37,11.96,11.96S27.6,33.49,21,33.49S9.04,28.13,9.04,21.53S14.41,9.57,21,9.57
		 M21,5.57c-8.81,0-15.96,7.14-15.96,15.96c0,8.81,7.15,15.96,15.96,15.96c8.81,0,15.96-7.15,15.96-15.96
		C36.96,12.72,29.82,5.57,21,5.57L21,5.57z"/>
</g>
<path d="M21,29.86c4.71,0,8.52-3.81,8.52-8.52c0-4.71-3.81-8.52-8.52-8.52"/>
</svg>
