<?xml version="1.0" encoding="utf-8"?>
<!-- Generator: Adobe Illustrator 26.3.1, SVG Export Plug-In . SVG Version: 6.00 Build 0)  -->
<svg version="1.1" id="Layer_1" xmlns="http://www.w3.org/2000/svg" xmlns:xlink="http://www.w3.org/1999/xlink" x="0px" y="0px"
	 viewBox="0 0 16 16" style="enable-background:new 0 0 16 16;" xml:space="preserve">
<style type="text/css">
	.st0{fill:#231F20;}
</style>
<g>
	<path class="st0" d="M8,4.4c1.99,0,3.6,1.62,3.6,3.6S9.99,11.6,8,11.6S4.4,9.99,4.4,8S6.01,4.4,8,4.4 M8,0.4C3.8,0.4,0.4,3.8,0.4,8
		c0,4.2,3.4,7.6,7.6,7.6s7.6-3.4,7.6-7.6C15.6,3.8,12.2,0.4,8,0.4L8,0.4z"/>
</g>
<path d="M8,11.97c2.24,0,4.06-1.82,4.06-4.06c0-2.24-1.82-4.06-4.06-4.06"/>
</svg>
