<?xml version="1.0" encoding="utf-8"?>
<!-- Generator: Adobe Illustrator 26.3.1, SVG Export Plug-In . SVG Version: 6.00 Build 0)  -->
<svg version="1.1" id="Layer_1" xmlns="http://www.w3.org/2000/svg" xmlns:xlink="http://www.w3.org/1999/xlink" x="0px" y="0px"
	 viewBox="0 0 17.99 13.97" style="enable-background:new 0 0 17.99 13.97;" xml:space="preserve">
<style type="text/css">
	.st0{fill:#FFFFFF;}
</style>
<g>
	<g>
		<g>
			<path class="st0" d="M14.91,1.81c1.2-1,0.9-1.81-0.66-1.81H3.73C2.17,0,1.88,0.82,3.07,1.81l3.74,3.12c1.2,1,3.16,1,4.35,0
				L14.91,1.81z"/>
		</g>
		<g>
			<path class="st0" d="M11.91,7.04c-1.2,1-2.2,1.83-2.22,1.84c0,0,0,0-0.02,0.01C9.6,8.95,9.52,8.99,9.44,9.03
				c-0.03,0.01-0.07,0.03-0.1,0.05C9.23,9.11,9.12,9.14,9,9.14c0,0-0.01,0-0.01,0c0,0,0,0,0,0c0,0,0,0,0,0c0,0-0.01,0-0.01,0
				c-0.11,0-0.22-0.02-0.34-0.06c-0.03-0.01-0.07-0.03-0.1-0.05C8.46,8.99,8.39,8.95,8.31,8.89C8.29,8.88,8.29,8.88,8.29,8.88
				C8.27,8.87,7.27,8.04,6.07,7.04L2.18,3.8C0.98,2.8,0,3.26,0,4.82v6.32c0,1.56,1.28,2.83,2.83,2.83h12.32
				c1.56,0,2.83-1.27,2.83-2.83V4.82c0-1.56-0.98-2.02-2.18-1.02L11.91,7.04z"/>
		</g>
	</g>
</g>
</svg>
