<?xml version="1.0" encoding="utf-8"?>
<!-- Generator: Adobe Illustrator 26.3.1, SVG Export Plug-In . SVG Version: 6.00 Build 0)  -->
<svg version="1.1" id="Layer_1" xmlns="http://www.w3.org/2000/svg" xmlns:xlink="http://www.w3.org/1999/xlink" x="0px" y="0px"
	 viewBox="0 0 78.67 63.79" style="enable-background:new 0 0 78.67 63.79;" xml:space="preserve">
<g>
	<path d="M34.97,7.06L30.71,0C28.27,1.5,0,12.21,0,39.62c0,7.23,0.34,24.17,18.9,24.17c11.19,0,13.94-10.28,13.94-13.58
		c0-21.98-21.38-14.18-21.38-14.18C11.46,17.96,31.26,9.18,34.97,7.06z"/>
</g>
<g>
	<path d="M78.67,7.06L74.42,0c-2.44,1.5-30.71,12.21-30.71,39.62c0,7.23,0.34,24.17,18.9,24.17c11.19,0,13.94-10.28,13.94-13.58
		c0-21.98-21.38-14.18-21.38-14.18C55.17,17.96,74.97,9.18,78.67,7.06z"/>
</g>
</svg>
