<?xml version="1.0" encoding="utf-8"?>
<!-- Generator: Adobe Illustrator 26.3.1, SVG Export Plug-In . SVG Version: 6.00 Build 0)  -->
<svg version="1.1" id="Layer_1" xmlns="http://www.w3.org/2000/svg" xmlns:xlink="http://www.w3.org/1999/xlink" x="0px" y="0px"
	 viewBox="0 0 298 345.1" style="enable-background:new 0 0 298 345.1;" xml:space="preserve">
<path d="M264.57,102.06l5.35-5.35c7.72-7.72,9.12-18.94,3.13-24.94c-6-6-17.22-4.59-24.93,3.13l-5.39,5.38
	C221.77,63.29,196.11,51.88,168,48.3v-9.58h7.66c10.91,0,19.84-8.71,19.84-19.36S186.57,0,175.66,0h-53.32
	c-10.91,0-19.84,8.71-19.84,19.36s8.93,19.36,19.84,19.36H130v9.58C56.68,57.63,0,120.24,0,196.1c0,82.29,66.71,149,149,149
	c82.29,0,149-66.71,149-149C298,160.43,285.46,127.7,264.57,102.06z M149,306.26c-60.84,0-110.17-49.32-110.17-110.17
	c0-60.84,49.32-110.17,110.17-110.17c60.84,0,110.17,49.32,110.17,110.17C259.17,256.94,209.84,306.26,149,306.26z"/>
</svg>
