<?xml version="1.0" encoding="utf-8"?>
<!-- Generator: Adobe Illustrator 26.3.1, SVG Export Plug-In . SVG Version: 6.00 Build 0)  -->
<svg version="1.1" id="Layer_1" xmlns="http://www.w3.org/2000/svg" xmlns:xlink="http://www.w3.org/1999/xlink" x="0px" y="0px"
	 viewBox="0 0 70 97" style="enable-background:new 0 0 70 97;" xml:space="preserve">
<g>
	<path d="M54.84,0c-0.13,0-0.25,0-0.38,0c-0.68,0.35-1.09,0.94-1.44,1.59c-0.59,1.09-1,2.25-1.32,3.44
		c-0.21,0.81-0.65,1.2-1.48,1.34c-2.34,0.4-4.04,1.73-5.23,3.74c-0.74,1.26-1.32,2.59-1.84,3.94c-1.43,3.68-2.52,7.48-3.85,11.2
		c-0.64,1.77-0.66,1.75-2.57,1.77c-2.27,0.02-2.11-0.35-2.14,2.15c-0.01,0.79,0.24,1.19,1.08,1.15c0.26-0.01,0.65-0.13,0.75,0.22
		c0.08,0.29-0.24,0.49-0.43,0.69c-1.19,1.26-2.69,1.99-4.34,2.43c-1.9,0.51-3.83,0.91-5.69,1.53c-4.74,1.59-9.14,3.81-12.55,7.57
		c-2.09,2.3-3.52,5.02-4.74,7.84c-3.71,8.6-5.45,17.71-6.84,26.9c-0.65,4.31-1.11,8.63-1.46,12.97C0.2,92.65-0.03,94.82,0,97
		c11.11,0,22.22,0,33.32,0c0.12-0.46-0.07-0.87-0.23-1.28c-0.68-1.75-2.07-2.67-3.83-3.07c-0.69-0.16-0.78-0.37-0.35-0.91
		c0.73-0.93,1.21-2,1.59-3.11c1.63-4.81,2.26-9.82,3.05-14.8c0.6-3.8,1.5-7.47,3.48-10.83c1.46-2.48,3.3-4.63,5.59-6.37
		c0.83-0.63,0.86-0.63,1,0.44c0.1,0.72,0.12,1.44,0.16,2.17c0.29,4.73,0.26,9.45-0.17,14.17c-0.34,3.68-0.47,7.35-0.15,11.04
		c0.37,4.25,1.15,8.43,2.23,12.55c4.44,0,8.89,0,13.33,0c-0.32-2.19-2.1-4.03-4.24-4.44c-1.28-0.25-2.53-0.08-3.77,0.2
		c-0.6,0.14-0.85,0.03-0.9-0.65c-0.4-5.32-0.13-10.6,0.96-15.82c1.26-6.03,2.44-12.06,3.07-18.18c0.26-2.54,1.03-4.83,2.27-7.03
		c1.19-2.12,2.23-4.32,3.41-6.46c0.93-1.69,1.11-3.4,0.41-5.19c-0.27-0.71-0.53-1.42-0.86-2.1c-0.96-1.96-1.97-3.89-2.91-5.85
		c-0.49-1.02-0.39-1.12,0.71-1.15c1.63-0.03,1.63-0.03,1.66-1.64c0-0.22-0.01-0.44,0-0.66c0.01-0.69-0.26-1.07-1.01-1.01
		c-0.5,0.04-1.02,0-1.52,0.01c-0.69,0.01-0.89-0.29-0.72-0.95c0.58-2.28,2.78-4.15,5.14-4.44c2.24-0.27,4.43,0.04,6.61,0.43
		c0.65,0.12,1.01-0.03,1.25-0.64c0.4-1,0.85-1.97,1.29-2.95c0.18-0.41,0.2-0.77-0.09-1.14c-3.18-4.11-6.64-7.9-11.37-10.31
		c-0.5-0.25-0.77-0.57-0.89-1.13c-0.3-1.42-0.65-2.83-1.27-4.16C55.92,1.04,55.55,0.39,54.84,0z"/>
</g>
</svg>
