<?xml version="1.0" encoding="utf-8"?>
<!-- Generator: Adobe Illustrator 26.3.1, SVG Export Plug-In . SVG Version: 6.00 Build 0)  -->
<svg version="1.1" id="Layer_1" xmlns="http://www.w3.org/2000/svg" xmlns:xlink="http://www.w3.org/1999/xlink" x="0px" y="0px"
	 viewBox="0 0 55.48 59.95" style="enable-background:new 0 0 55.48 59.95;" xml:space="preserve">
<path d="M52.35,12.17h-6.96c0.46-0.67,0.83-1.41,1.07-2.21c0.59-1.98,0.37-4.08-0.61-5.9c-0.98-1.82-2.62-3.15-4.6-3.74
	c-1.98-0.59-4.08-0.37-5.9,0.61c-3.61,1.95-6.17,6.11-7.6,9.01c-1.43-2.9-3.99-7.06-7.6-9.01c-3.76-2.03-8.47-0.63-10.5,3.13
	C8.2,6.72,8.49,9.84,10.1,12.17H3.13C1.41,12.17,0,13.58,0,15.3v9.38c0,1.73,1.41,3.13,3.13,3.13h0.83v26.11
	c0,3.33,2.71,6.03,6.03,6.03h35.49c3.32,0,6.03-2.7,6.03-6.03V27.82h0.83c1.73,0,3.13-1.4,3.13-3.13V15.3
	C55.48,13.58,54.07,12.17,52.35,12.17z M36.48,3.05c1.26-0.68,2.7-0.83,4.07-0.42c1.37,0.41,2.5,1.32,3.18,2.58
	c0.68,1.26,0.83,2.7,0.42,4.07c-0.36,1.2-1.13,2.2-2.16,2.89H29.35C30.48,9.64,32.96,4.96,36.48,3.05z M11.75,5.21
	c1.4-2.59,4.65-3.56,7.25-2.16c3.52,1.91,6,6.6,7.13,9.12H13.49C11.23,10.65,10.43,7.65,11.75,5.21z M26.54,27.82v13.67H6.36V27.82
	H26.54z M6.36,53.92V43.89h20.18v13.67H9.99C7.99,57.55,6.36,55.93,6.36,53.92z M45.48,57.55H28.94V43.89h20.17v10.04
	C49.11,55.93,47.49,57.55,45.48,57.55z M49.11,41.49H28.94V27.82h20.17V41.49z M53.08,24.68c0,0.4-0.33,0.73-0.73,0.73h-2.03
	c0,0,0,0,0,0s0,0,0,0H27.74c0,0,0,0,0,0s0,0,0,0H5.17c0,0,0,0,0,0s0,0,0,0H3.13c-0.4,0-0.73-0.33-0.73-0.73V15.3
	c0-0.4,0.34-0.73,0.73-0.73h49.21c0.4,0,0.73,0.33,0.73,0.73V24.68z"/>
</svg>
